<?xml version="1.0" encoding="UTF-8" standalone="no"?>
<svg
   xmlns:dc="http://purl.org/dc/elements/1.1/"
   xmlns:cc="http://creativecommons.org/ns#"
   xmlns:rdf="http://www.w3.org/1999/02/22-rdf-syntax-ns#"
   xmlns:svg="http://www.w3.org/2000/svg"
   xmlns="http://www.w3.org/2000/svg"
   xmlns:sodipodi="http://sodipodi.sourceforge.net/DTD/sodipodi-0.dtd"
   xmlns:inkscape="http://www.inkscape.org/namespaces/inkscape"
   version="1.0"
   width="256.000000pt"
   height="256.000000pt"
   viewBox="0 0 256.000000 256.000000"
   preserveAspectRatio="xMidYMid meet"
   id="svg8"
   sodipodi:docname="icon(1).svg"
   inkscape:version="0.92.3 (2405546, 2018-03-11)">
  <defs
     id="defs12" />
  <sodipodi:namedview
     pagecolor="#ffffff"
     bordercolor="#666666"
     borderopacity="1"
     objecttolerance="10"
     gridtolerance="10"
     guidetolerance="10"
     inkscape:pageopacity="0"
     inkscape:pageshadow="2"
     inkscape:window-width="1863"
     inkscape:window-height="1053"
     id="namedview10"
     showgrid="false"
     inkscape:zoom="1.9438477"
     inkscape:cx="80.552105"
     inkscape:cy="141.66857"
     inkscape:window-x="57"
     inkscape:window-y="27"
     inkscape:window-maximized="1"
     inkscape:current-layer="layer1" />
  <metadata
     id="metadata2">
Created by potrace 1.15, written by Peter Selinger 2001-2017
<rdf:RDF>
  <cc:Work
     rdf:about="">
    <dc:format>image/svg+xml</dc:format>
    <dc:type
       rdf:resource="http://purl.org/dc/dcmitype/StillImage" />
  </cc:Work>
</rdf:RDF>
</metadata>
  <g
     inkscape:groupmode="layer"
     id="layer1"
     inkscape:label="Layer 1">
    <g
       id="g830"
       transform="translate(-3.0612959,-2.6239638)"
       style="stroke:#2a475e;stroke-opacity:1;fill:#1b2838;fill-opacity:1;stroke-width:1.49999996;stroke-miterlimit:4;stroke-dasharray:none">
      <path
         sodipodi:open="true"
         d="M 259.02655,130.05664 A 127.53331,127.3768 0 0 1 132.20054,257.96712 127.53331,127.3768 0 0 1 3.9640685,131.46725 127.53331,127.3768 0 0 1 130.44843,3.2197532 127.53331,127.3768 0 0 1 259.02188,129.37794"
         sodipodi:end="6.2736518"
         sodipodi:start="6.2789802"
         sodipodi:ry="127.3768"
         sodipodi:rx="127.53331"
         sodipodi:cy="130.59227"
         sodipodi:cx="131.49437"
         sodipodi:type="arc"
         id="path825"
         style="fill:#1b2838;stroke-width:1.49999996;stroke:#2a475e;stroke-opacity:1;fill-opacity:1;stroke-miterlimit:4;stroke-dasharray:none" />
    </g>
  </g>
  <g
     inkscape:groupmode="layer"
     id="layer2"
     inkscape:label="Layer 2">
    <g
       id="g1271"
       transform="matrix(0.07932635,0,0,-0.07932635,26.286252,221.72148)"
       style="fill:#c7d5e0;stroke:none;fill-opacity:1">
      <path
         id="path1269"
         d="m 1174,2460 c -100,-21 -168,-71 -212,-154 -25,-49 -27,-58 -27,-201 0,-82 4,-215 9,-295 l 8,-145 -53,-77 c -30,-43 -81,-114 -113,-159 -45,-62 -69,-108 -103,-202 -24,-67 -64,-158 -88,-203 -50,-93 -61,-137 -45,-178 10,-27 7,-35 -26,-83 -43,-62 -81,-88 -153,-104 -29,-6 -62,-20 -73,-31 -18,-18 -19,-28 -13,-92 3,-39 1,-110 -5,-157 -5,-48 -8,-93 -5,-101 9,-23 41,-34 217,-78 88,-23 201,-56 249,-75 132,-52 177,-48 263,23 27,22 68,45 92,51 46,12 361,15 437,5 38,-5 48,-11 57,-34 22,-54 55,-74 126,-78 88,-6 132,13 229,98 48,41 117,89 170,116 141,73 184,111 170,154 -3,10 -37,43 -74,74 -83,67 -107,103 -116,179 -4,34 -12,60 -20,63 -10,4 -11,12 -3,36 6,17 9,73 6,131 -8,173 -75,342 -205,520 -86,118 -168,255 -190,319 -7,22 -18,104 -24,182 -12,167 -30,251 -66,319 -36,65 -111,131 -179,157 -64,23 -179,33 -240,20 z m 255,-359 c 27,-29 51,-90 51,-130 0,-12 -9,-39 -20,-61 -19,-37 -21,-39 -50,-28 l -30,10 25,20 c 34,27 34,80 0,113 -28,29 -42,31 -72,10 -17,-12 -23,-28 -25,-65 -3,-50 -3,-50 -25,-35 -19,13 -23,25 -23,72 0,49 4,59 34,89 45,45 96,47 135,5 z m -340,4 c 47,-24 79,-128 48,-154 -19,-15 -27,-4 -27,35 0,67 -78,82 -94,18 -8,-32 0,-63 25,-90 16,-17 17,-23 6,-32 -11,-9 -17,-4 -30,22 -36,76 -29,170 16,201 26,18 22,18 56,0 z m 422,-486 c 27,-57 58,-133 70,-169 12,-36 43,-108 69,-160 27,-52 53,-121 60,-153 14,-68 19,-269 7,-309 -6,-25 -12,-28 -47,-28 -21,0 -42,-6 -47,-12 -4,-7 -8,-63 -9,-124 -1,-62 -7,-121 -13,-132 -23,-43 -149,-134 -228,-165 -62,-24 -178,-40 -239,-32 -57,7 -135,51 -161,91 -13,20 -12,23 24,40 42,21 60,56 49,97 -4,17 -42,54 -113,109 -59,45 -125,100 -148,120 l -40,37 2,82 c 3,97 20,161 75,278 22,47 55,129 73,181 17,52 51,124 74,159 37,58 41,70 41,129 v 64 l 56,-51 c 63,-57 84,-65 154,-59 37,4 67,16 117,50 87,57 106,68 117,65 6,-2 31,-50 57,-108 z"
         inkscape:connector-curvature="0"
         style="fill:#c7d5e0;fill-opacity:1" />
    </g>
  </g>
</svg>
